<svg width="512" height="512" viewBox="0 0 512 512" fill="none" xmlns="http://www.w3.org/2000/svg">
<g clip-path="url(#clip0_724_2)">
<rect width="512" height="512" rx="89.8246" fill="#4F46E5"/>
<g filter="url(#filter0_d_724_2)">
<path d="M160.914 219.429C124.613 219.429 95.0857 189.901 95.0857 153.6H109.714C109.714 181.826 132.688 204.8 160.914 204.8C189.14 204.8 212.114 181.826 212.114 153.6V117.029C212.114 80.7278 241.642 51.2 277.943 51.2C314.244 51.2 343.771 80.7278 343.771 117.029H329.143C329.143 88.8028 306.169 65.8286 277.943 65.8286C249.717 65.8286 226.743 88.8028 226.743 117.029V153.6C226.743 189.901 197.215 219.429 160.914 219.429Z" fill="#D2D5D7"/>
<path d="M444.606 237.158L408.752 140.456C405.16 130.765 396.003 124.343 385.77 124.343H279.83C269.597 124.343 260.44 130.765 256.848 140.456L220.994 237.158C219.955 239.945 219.429 242.893 219.429 245.87V428.654C219.429 442.368 230.422 453.486 243.975 453.486H421.625C435.178 453.486 446.171 442.368 446.171 428.661V245.877C446.171 242.893 445.645 239.945 444.606 237.158ZM336.457 204.8C324.337 204.8 314.514 194.977 314.514 182.857C314.514 170.737 324.337 160.914 336.457 160.914C348.577 160.914 358.4 170.737 358.4 182.857C358.4 194.977 348.577 204.8 336.457 204.8Z" fill="#E6E6E6"/>
<path d="M120.342 182.857H84.4581C70.1294 182.857 58.5143 171.242 58.5143 156.913V99.0867C58.5143 84.758 70.1294 73.1429 84.4581 73.1429H120.335C134.671 73.1429 146.286 84.758 146.286 99.0867V156.906C146.286 171.242 134.671 182.857 120.342 182.857Z" fill="#FFCE00"/>
<path d="M336.457 212.114C320.322 212.114 307.2 198.992 307.2 182.857C307.2 166.722 320.322 153.6 336.457 153.6C352.592 153.6 365.714 166.722 365.714 182.857C365.714 198.992 352.592 212.114 336.457 212.114ZM336.457 168.229C328.389 168.229 321.829 174.789 321.829 182.857C321.829 190.925 328.389 197.486 336.457 197.486C344.525 197.486 351.086 190.925 351.086 182.857C351.086 174.789 344.525 168.229 336.457 168.229Z" fill="#D2D5D7"/>
<path d="M343.764 115.661H329.136V182.864H343.764V115.661Z" fill="#D2D5D7"/>
<path d="M265.457 436.714L256 427.257L246.543 436.714L236.2 426.372L256 406.572L275.8 426.372L265.457 436.714Z" fill="#D2D5D7"/>
<path d="M316.657 436.714L307.2 427.257L297.743 436.714L287.4 426.372L307.2 406.572L327 426.372L316.657 436.714Z" fill="#D2D5D7"/>
<path d="M367.857 436.714L358.4 427.257L348.943 436.714L338.6 426.372L358.4 406.572L378.2 426.372L367.857 436.714Z" fill="#D2D5D7"/>
<path d="M419.057 436.714L409.6 427.257L400.143 436.714L389.8 426.372L409.6 406.572L429.4 426.372L419.057 436.714Z" fill="#D2D5D7"/>
<path d="M265.457 363.571L256 354.114L246.543 363.571L236.2 353.229L256 333.429L275.8 353.229L265.457 363.571Z" fill="#D2D5D7"/>
<path d="M316.657 363.571L307.2 354.114L297.743 363.571L287.4 353.229L307.2 333.429L327 353.229L316.657 363.571Z" fill="#D2D5D7"/>
<path d="M367.857 363.571L358.4 354.114L348.943 363.571L338.6 353.229L358.4 333.429L378.2 353.229L367.857 363.571Z" fill="#D2D5D7"/>
<path d="M419.057 363.571L409.6 354.114L400.143 363.571L389.8 353.229L409.6 333.429L429.4 353.229L419.057 363.571Z" fill="#D2D5D7"/>
<path d="M287.4 400.143L277.943 390.685L268.485 400.143L258.143 389.8L277.943 370L297.743 389.8L287.4 400.143Z" fill="#D2D5D7"/>
<path d="M338.6 400.143L329.143 390.685L319.685 400.143L309.343 389.8L329.143 370L348.943 389.8L338.6 400.143Z" fill="#D2D5D7"/>
<path d="M389.8 400.143L380.343 390.685L370.885 400.143L360.543 389.8L380.343 370L400.143 389.8L389.8 400.143Z" fill="#D2D5D7"/>
<path d="M287.4 327L277.943 317.542L268.485 327L258.143 316.657L277.943 296.858L297.743 316.657L287.4 327Z" fill="#D2D5D7"/>
<path d="M338.6 327L329.143 317.542L319.685 327L309.343 316.657L329.143 296.858L348.943 316.657L338.6 327Z" fill="#D2D5D7"/>
<path d="M389.8 327L380.343 317.542L370.885 327L360.543 316.657L380.343 296.858L400.143 316.657L389.8 327Z" fill="#D2D5D7"/>
<path d="M446.171 321.829V311.486L431.543 296.858L411.743 316.657L422.085 327L431.543 317.542L441 327L446.171 321.829Z" fill="#D2D5D7"/>
<path d="M446.171 394.971V384.629L431.543 370L411.743 389.8L422.085 400.143L431.543 390.685L441 400.143L446.171 394.971Z" fill="#D2D5D7"/>
<path d="M226.743 296.858L219.429 304.172V314.514L224.6 319.686L226.743 317.542L236.2 327L246.543 316.657L226.743 296.858Z" fill="#D2D5D7"/>
<path d="M226.743 370L219.429 377.315V387.657L224.6 392.828L226.743 390.685L236.2 400.143L246.543 389.8L226.743 370Z" fill="#D2D5D7"/>
</g>
<rect x="58.5143" y="98.807" width="87.7714" height="17.9649" fill="#C59F00"/>
<rect x="58.5143" y="135.635" width="87.7714" height="17.9649" fill="#C59F00"/>
</g>
<defs>
<filter id="filter0_d_724_2" x="28.5143" y="31.2" width="447.657" height="462.286" filterUnits="userSpaceOnUse" color-interpolation-filters="sRGB">
<feFlood flood-opacity="0" result="BackgroundImageFix"/>
<feColorMatrix in="SourceAlpha" type="matrix" values="0 0 0 0 0 0 0 0 0 0 0 0 0 0 0 0 0 0 127 0" result="hardAlpha"/>
<feOffset dy="10"/>
<feGaussianBlur stdDeviation="15"/>
<feComposite in2="hardAlpha" operator="out"/>
<feColorMatrix type="matrix" values="0 0 0 0 0 0 0 0 0 0 0 0 0 0 0 0 0 0 0.15 0"/>
<feBlend mode="normal" in2="BackgroundImageFix" result="effect1_dropShadow_724_2"/>
<feBlend mode="normal" in="SourceGraphic" in2="effect1_dropShadow_724_2" result="shape"/>
</filter>
<clipPath id="clip0_724_2">
<rect width="512" height="512" fill="white"/>
</clipPath>
</defs>
</svg>
