<svg width="57" height="57" viewBox="0 0 57 57" fill="none" xmlns="http://www.w3.org/2000/svg">
<rect width="57" height="57" rx="10" fill="#5F29B8"/>
<path d="M17.9143 24.4286C13.873 24.4286 10.5857 21.1413 10.5857 17.1H12.2143C12.2143 20.2423 14.7719 22.8 17.9143 22.8C21.0566 22.8 23.6143 20.2423 23.6143 17.1V13.0286C23.6143 8.98728 26.9015 5.70001 30.9428 5.70001C34.9841 5.70001 38.2714 8.98728 38.2714 13.0286H36.6428C36.6428 9.88625 34.0852 7.32858 30.9428 7.32858C27.8005 7.32858 25.2428 9.88625 25.2428 13.0286V17.1C25.2428 21.1413 21.9556 24.4286 17.9143 24.4286Z" fill="#D2D5D7"/>
<path d="M49.4972 26.4024L45.5056 15.6368C45.1057 14.5578 44.0863 13.8429 42.9471 13.8429H31.153C30.0138 13.8429 28.9943 14.5578 28.5945 15.6368L24.6028 26.4024C24.4872 26.7127 24.4286 27.0408 24.4286 27.3723V47.7213C24.4286 49.248 25.6525 50.4858 27.1613 50.4858H46.9387C48.4476 50.4858 49.6714 49.248 49.6714 47.7221V27.3731C49.6714 27.0408 49.6128 26.7127 49.4972 26.4024ZM37.4572 22.8C36.1079 22.8 35.0143 21.7065 35.0143 20.3572C35.0143 19.0079 36.1079 17.9143 37.4572 17.9143C38.8064 17.9143 39.9 19.0079 39.9 20.3572C39.9 21.7065 38.8064 22.8 37.4572 22.8Z" fill="#E6E6E6"/>
<path d="M13.3974 20.3572H9.40255C7.80737 20.3572 6.51428 19.0641 6.51428 17.4689V11.0312C6.51428 9.43597 7.80737 8.14288 9.40255 8.14288H13.3966C14.9926 8.14288 16.2857 9.43597 16.2857 11.0312V17.4681C16.2857 19.0641 14.9926 20.3572 13.3974 20.3572Z" fill="#FFCE00"/>
<path d="M37.4572 23.6143C35.6608 23.6143 34.2 22.1535 34.2 20.3572C34.2 18.5609 35.6608 17.1 37.4572 17.1C39.2535 17.1 40.7143 18.5609 40.7143 20.3572C40.7143 22.1535 39.2535 23.6143 37.4572 23.6143ZM37.4572 18.7286C36.559 18.7286 35.8286 19.459 35.8286 20.3572C35.8286 21.2553 36.559 21.9858 37.4572 21.9858C38.3553 21.9858 39.0857 21.2553 39.0857 20.3572C39.0857 19.459 38.3553 18.7286 37.4572 18.7286Z" fill="#D2D5D7"/>
<path d="M38.2706 12.8763H36.642V20.3579H38.2706V12.8763Z" fill="#D2D5D7"/>
<path d="M29.5529 48.6186L28.5 47.5657L27.4471 48.6186L26.2957 47.4672L28.5 45.2629L30.7043 47.4672L29.5529 48.6186Z" fill="#D2D5D7"/>
<path d="M35.2529 48.6186L34.2 47.5657L33.1471 48.6186L31.9957 47.4672L34.2 45.2629L36.4043 47.4672L35.2529 48.6186Z" fill="#D2D5D7"/>
<path d="M40.9529 48.6186L39.9 47.5657L38.8471 48.6186L37.6957 47.4672L39.9 45.2629L42.1043 47.4672L40.9529 48.6186Z" fill="#D2D5D7"/>
<path d="M46.6529 48.6186L45.6 47.5657L44.5472 48.6186L43.3958 47.4672L45.6 45.2629L47.8043 47.4672L46.6529 48.6186Z" fill="#D2D5D7"/>
<path d="M29.5529 40.4757L28.5 39.4229L27.4471 40.4757L26.2957 39.3243L28.5 37.1201L30.7043 39.3243L29.5529 40.4757Z" fill="#D2D5D7"/>
<path d="M35.2529 40.4757L34.2 39.4229L33.1471 40.4757L31.9957 39.3243L34.2 37.1201L36.4043 39.3243L35.2529 40.4757Z" fill="#D2D5D7"/>
<path d="M40.9529 40.4757L39.9 39.4229L38.8471 40.4757L37.6957 39.3243L39.9 37.1201L42.1043 39.3243L40.9529 40.4757Z" fill="#D2D5D7"/>
<path d="M46.6529 40.4757L45.6 39.4229L44.5472 40.4757L43.3958 39.3243L45.6 37.1201L47.8043 39.3243L46.6529 40.4757Z" fill="#D2D5D7"/>
<path d="M31.9957 44.5471L30.9429 43.4943L29.89 44.5471L28.7386 43.3957L30.9429 41.1915L33.1471 43.3957L31.9957 44.5471Z" fill="#D2D5D7"/>
<path d="M37.6957 44.5471L36.6429 43.4943L35.59 44.5471L34.4386 43.3957L36.6429 41.1915L38.8471 43.3957L37.6957 44.5471Z" fill="#D2D5D7"/>
<path d="M43.3958 44.5471L42.3429 43.4943L41.29 44.5471L40.1386 43.3957L42.3429 41.1915L44.5472 43.3957L43.3958 44.5471Z" fill="#D2D5D7"/>
<path d="M31.9957 36.4043L30.9429 35.3514L29.89 36.4043L28.7386 35.2529L30.9429 33.0486L33.1471 35.2529L31.9957 36.4043Z" fill="#D2D5D7"/>
<path d="M37.6957 36.4043L36.6429 35.3514L35.59 36.4043L34.4386 35.2529L36.6429 33.0486L38.8471 35.2529L37.6957 36.4043Z" fill="#D2D5D7"/>
<path d="M43.3958 36.4043L42.3429 35.3514L41.29 36.4043L40.1386 35.2529L42.3429 33.0486L44.5472 35.2529L43.3958 36.4043Z" fill="#D2D5D7"/>
<path d="M49.6714 35.8286V34.6772L48.0428 33.0486L45.8386 35.2529L46.99 36.4043L48.0428 35.3514L49.0957 36.4043L49.6714 35.8286Z" fill="#D2D5D7"/>
<path d="M49.6714 43.9714V42.82L48.0428 41.1915L45.8386 43.3957L46.99 44.5471L48.0428 43.4943L49.0957 44.5471L49.6714 43.9714Z" fill="#D2D5D7"/>
<path d="M25.2429 33.0486L24.4286 33.8629V35.0143L25.0043 35.59L25.2429 35.3514L26.2957 36.4043L27.4471 35.2529L25.2429 33.0486Z" fill="#D2D5D7"/>
<path d="M25.2429 41.1915L24.4286 42.0058V43.1572L25.0043 43.7329L25.2429 43.4943L26.2957 44.5471L27.4471 43.3957L25.2429 41.1915Z" fill="#D2D5D7"/>
<rect x="6.51428" y="11" width="9.77143" height="2" fill="#C59F00"/>
<rect x="6.51428" y="15.1" width="9.77143" height="2" fill="#C59F00"/>
</svg>
