<svg width="436" height="146" viewBox="0 0 436 146" fill="none" xmlns="http://www.w3.org/2000/svg">
<path d="M348.5 65C351.5 58 353.5 52.5 355 49.5C357.062 45.3769 360 42.5 364.5 42.5C369 42.5 371.5 46 372 49.5L373.5 57.5" stroke="#C4C4C4" stroke-width="2.5"/>
<path d="M344.52 81.2889L339.272 79.2757C337.176 78.4718 336.237 76.0527 337.174 73.8723L340.957 65.0727C341.894 62.8922 344.353 61.7764 346.448 62.5803L351.695 64.5931C353.792 65.3974 354.731 67.8165 353.794 69.9969L350.012 78.7954C349.074 80.9769 346.615 82.0928 344.52 81.2889Z" fill="#FFCE00"/>
<path d="M395.119 70.1001L385.874 56.5031C384.948 55.1403 383.253 54.5107 381.619 54.9235L364.707 59.1973C363.074 59.6101 361.846 60.9786 361.625 62.6311L359.422 79.1211C359.358 79.5965 359.381 80.0763 359.49 80.5394L366.144 108.974C366.644 111.108 368.803 112.394 370.967 111.847L399.326 104.68C401.49 104.134 402.84 101.96 402.341 99.8282L395.686 71.3933C395.578 70.9291 395.386 70.4918 395.119 70.1001ZM376.676 69.4292C374.741 69.9182 372.816 68.7863 372.374 66.9009C371.933 65.0155 373.144 63.0911 375.078 62.6021C377.013 62.1132 378.939 63.2451 379.38 65.1305C379.821 67.0159 378.611 68.9403 376.676 69.4292Z" fill="#D9D9D9"/>
<path d="M376.739 70.4024C374.174 71.0511 371.612 69.5443 371.027 67.0428C370.442 64.5412 372.052 61.9793 374.618 61.3306C377.183 60.6819 379.745 62.1887 380.33 64.6902C380.915 67.1918 379.304 69.7537 376.739 70.4024ZM375.148 63.5986C373.865 63.9229 373.06 65.2039 373.353 66.4546C373.645 67.7054 374.926 68.4588 376.209 68.1344C377.491 67.8101 378.297 66.5291 378.004 65.2784C377.712 64.0276 376.431 63.2742 375.148 63.5986Z" fill="#C4C4C4"/>
<path d="M374.338 55.0345L371.962 55.6283L374.451 66.1473L376.826 65.5535L374.338 55.0345Z" fill="#C4C4C4"/>
<path d="M374.208 108.39L372.366 107.307L371.208 109.148L369.194 107.964L371.618 104.11L375.474 106.377L374.208 108.39Z" fill="#C4C4C4"/>
<path d="M382.249 106.435L380.407 105.352L379.249 107.193L377.235 106.009L379.659 102.155L383.515 104.421L382.249 106.435Z" fill="#C4C4C4"/>
<path d="M390.29 104.479L388.448 103.396L387.29 105.237L385.276 104.053L387.7 100.199L391.556 102.466L390.29 104.479Z" fill="#C4C4C4"/>
<path d="M398.33 102.524L396.488 101.441L395.33 103.282L393.316 102.098L395.74 98.2439L399.596 100.511L398.33 102.524Z" fill="#C4C4C4"/>
<path d="M371.414 96.9033L369.572 95.8206L368.414 97.6615L366.4 96.4774L368.824 92.6235L372.68 94.8902L371.414 96.9033Z" fill="#C4C4C4"/>
<path d="M379.455 94.9478L377.613 93.8651L376.455 95.706L374.441 94.5219L376.865 90.668L380.721 92.9347L379.455 94.9478Z" fill="#C4C4C4"/>
<path d="M387.496 92.9923L385.654 91.9096L384.496 93.7504L382.482 92.5664L384.906 88.7125L388.762 90.9792L387.496 92.9923Z" fill="#C4C4C4"/>
<path d="M395.537 91.0369L393.695 89.9542L392.537 91.795L390.523 90.611L392.947 86.757L396.803 89.0238L395.537 91.0369Z" fill="#C4C4C4"/>
<path d="M376.257 101.809L374.415 100.726L373.257 102.567L371.243 101.383L373.667 97.5288L377.523 99.7955L376.257 101.809Z" fill="#C4C4C4"/>
<path d="M384.298 99.8531L382.456 98.7704L381.298 100.611L379.284 99.4273L381.708 95.5733L385.564 97.84L384.298 99.8531Z" fill="#C4C4C4"/>
<path d="M392.338 97.8976L390.497 96.8149L389.339 98.6558L387.325 97.4718L389.748 93.6178L393.604 95.8845L392.338 97.8976Z" fill="#C4C4C4"/>
<path d="M373.463 90.3218L371.622 89.2391L370.464 91.08L368.45 89.896L370.873 86.042L374.729 88.3087L373.463 90.3218Z" fill="#C4C4C4"/>
<path d="M381.504 88.3663L379.663 87.2836L378.505 89.1245L376.491 87.9405L378.914 84.0865L382.77 86.3532L381.504 88.3663Z" fill="#C4C4C4"/>
<path d="M389.545 86.4109L387.703 85.3282L386.545 87.169L384.531 85.985L386.955 82.1311L390.811 84.3978L389.545 86.4109Z" fill="#C4C4C4"/>
<path d="M398.227 83.4453L397.852 81.8442L395 80.1668L392.573 84.0269L394.59 85.2129L395.749 83.3691L397.593 84.4535L398.227 83.4453Z" fill="#C4C4C4"/>
<path d="M401.02 94.9321L400.646 93.3309L397.793 91.6535L395.366 95.5137L397.383 96.6996L398.542 94.8558L400.386 95.9403L401.02 94.9321Z" fill="#C4C4C4"/>
<path d="M362.818 88.0007L361.919 89.4303L362.295 91.0354L363.305 91.6298L363.569 91.211L365.417 92.2981L366.688 90.2767L362.818 88.0007Z" fill="#C4C4C4"/>
<path d="M365.611 99.4875L364.713 100.917L365.088 102.522L366.099 103.117L366.362 102.698L368.211 103.785L369.481 101.764L365.611 99.4875Z" fill="#C4C4C4"/>
<rect width="14.41" height="3.0934" transform="matrix(0.909681 0.355102 -0.396988 0.941994 340.781 64.8961)" fill="#C59F00"/>
<rect width="14.41" height="3.0934" transform="matrix(0.909681 0.355102 -0.396988 0.941994 338.524 70.404)" fill="#C59F00"/>
<path d="M48.3651 89.0708C48.3651 95.3736 51.0456 98.525 56.4066 98.525C62.2747 98.525 66.223 96.4965 68.2515 92.4396C68.976 90.9906 69.3382 89.1433 69.3382 86.8974C69.3382 84.5792 68.7949 82.442 67.7082 80.486C65.897 77.3708 62.7819 73.9296 58.3626 70.1624C51.0456 63.932 47.3871 57.4843 47.3871 50.8193C47.3871 44.0818 49.488 38.9019 53.6899 35.2796C57.8917 31.6573 62.7094 29.8461 68.1429 29.8461C73.5763 29.8461 77.8869 31.2226 81.0745 33.9756C84.2621 36.7285 85.8559 40.858 85.8559 46.3639C85.8559 49.9862 84.6243 53.1376 82.1612 55.8181C79.7705 58.4986 76.5828 60.1648 72.5983 60.8168C74.4094 62.3382 76.2206 63.8958 78.0318 65.4896C79.7705 67.0834 81.3643 68.8221 82.8132 70.7057C86.0008 74.9801 87.5946 80.0875 87.5946 86.0281C87.5946 90.1575 86.6166 93.8885 84.6606 97.221C82.777 100.554 80.2776 103.379 77.1624 105.697C74.1197 107.943 70.6785 109.682 66.8388 110.913C62.9992 112.145 59.4131 112.761 56.0806 112.761C48.9809 112.761 43.475 111.131 39.5629 107.871C34.9988 104.176 32.7167 98.851 32.7167 91.8962C32.7167 87.3321 34.2019 82.9129 37.1722 78.6386C40.1425 74.3643 43.2939 72.2271 46.6264 72.2271C49.2344 72.2271 50.5385 73.024 50.5385 74.6178C50.5385 76.9361 50.1762 79.2544 49.4518 81.5726C48.7273 83.8185 48.3651 86.3179 48.3651 89.0708ZM69.4469 58.2088C73.5763 54.0794 75.641 49.7688 75.641 45.2772C75.641 43.9007 74.9166 42.7415 73.4676 41.7997C71.8738 40.9304 70.2076 40.4957 68.4689 40.4957C64.5568 40.4957 61.7314 41.7635 59.9927 44.2991C60.862 47.4143 62.1298 50.0586 63.7961 52.232C65.5348 54.4054 67.4184 56.3976 69.4469 58.2088ZM138.377 86.3541C139.681 86.3541 140.333 87.477 140.333 89.7228C140.333 91.8962 139.754 94.2507 138.594 96.7863C137.508 99.3219 135.805 101.785 133.487 104.176C131.241 106.494 128.343 108.486 124.793 110.153C121.244 111.819 117.042 112.652 112.188 112.652C107.406 112.652 103.204 111.239 99.5822 108.414C95.9599 105.516 94.1487 101.387 94.1487 96.0256C94.1487 90.5922 94.9819 85.7021 96.6481 81.3553C98.3868 76.9361 100.633 73.1327 103.386 69.9451C106.211 66.7574 109.399 64.2943 112.948 62.5556C116.498 60.7444 119.867 59.8388 123.055 59.8388C128.633 59.8388 131.422 62.0484 131.422 66.4676C131.422 69.0033 130.879 71.0317 129.792 72.5531C128.778 74.0745 127.727 74.8352 126.641 74.8352C125.192 74.8352 123.924 74.328 122.837 73.3138C121.751 72.2996 120.555 71.7924 119.251 71.7924C117.947 71.72 116.679 72.3358 115.448 73.6398C114.289 74.9438 113.311 76.6101 112.514 78.6386C110.92 82.6956 110.123 87.4408 110.123 92.8742C110.196 95.4823 111.391 97.4383 113.709 98.7424C115.303 99.6117 117.187 100.083 119.36 100.155C121.533 100.155 123.598 99.4306 125.554 97.9817C127.583 96.5328 129.43 94.9752 131.096 93.3089C132.762 91.5702 134.211 89.9764 135.443 88.5275C136.747 87.0785 137.725 86.3541 138.377 86.3541ZM178.827 102.763C173.104 109.501 166.222 112.869 158.18 112.869C150.211 112.869 144.234 110.841 140.25 106.784C136.265 102.654 134.309 97.547 134.382 91.4615C134.309 82.8405 137.026 75.4147 142.532 69.1844C148.038 62.954 155.246 59.8388 164.157 59.8388C168.214 59.8388 171.474 60.3459 173.937 61.3602C178.212 63.0989 180.349 64.7289 180.349 66.2503C180.349 67.4094 177.342 68.0252 171.329 68.0977C165.389 68.0977 160.39 70.1624 156.333 74.2918C152.348 78.3488 150.356 83.4925 150.356 89.7228C150.356 92.9829 151.298 95.7359 153.182 97.9817C155.138 100.155 157.854 101.242 161.332 101.242C164.882 101.242 167.816 100.517 170.134 99.0684C164.99 95.591 162.418 90.556 162.418 83.9634C162.346 80.486 163.578 77.3346 166.113 74.5092C168.721 71.6113 172.018 70.1624 176.002 70.1624C180.059 70.0899 182.957 71.1766 184.696 73.4225C186.434 75.6683 187.304 78.5661 187.304 82.116C187.304 85.5934 186.471 89.2882 184.804 93.2002H185.456C188.644 93.1278 191.397 92.0049 193.715 89.8315C194.584 88.9621 195.309 88.2015 195.889 87.5494C196.541 86.8974 197.193 86.5714 197.845 86.5714C198.859 86.5714 199.366 87.7668 199.366 90.1575C199.366 94.5767 198.062 97.9092 195.454 100.155C192.846 102.328 189.948 103.415 186.76 103.415C183.645 103.415 181.001 103.198 178.827 102.763ZM177.849 90.1575C179.081 87.5494 179.697 85.0138 179.697 82.5507C179.697 80.0875 178.9 78.8559 177.306 78.8559C176.654 78.8559 176.111 79.3268 175.676 80.2686C175.241 81.2104 175.024 82.116 175.024 82.9853C175.024 85.8832 175.966 88.2739 177.849 90.1575ZM208.382 57.7741C210.99 57.7741 213.453 60.2735 215.772 65.2723C219.177 61.7224 223.378 59.9475 228.377 59.9475C233.448 59.9475 237.252 61.0704 239.787 63.3162C242.323 65.4896 243.591 68.6048 243.591 72.6618C243.591 76.6463 243.047 80.7033 241.961 84.8327C240.947 88.9621 240.186 91.9324 239.679 93.7436C239.244 95.4823 239.027 96.9312 239.027 98.0904C239.027 99.2495 239.425 99.8291 240.222 99.8291C241.309 99.8291 242.649 99.1408 244.243 97.7643C245.837 96.3879 247.43 94.9027 249.024 93.3089C250.618 91.6427 252.067 90.1213 253.371 88.7448C254.748 87.3683 255.689 86.6801 256.196 86.6801C257.211 86.6801 257.718 87.9117 257.718 90.3748C257.718 95.4461 255.218 100.336 250.22 105.045C241.816 109.972 236.455 112.435 234.137 112.435C233.919 112.435 233.774 112.398 233.702 112.326C227.906 112.326 225.008 107.689 225.008 98.4164C225.008 94.4318 225.371 90.7733 226.095 87.4408C226.892 84.1083 227.472 81.6813 227.834 80.1599C228.196 78.6386 228.377 77.081 228.377 75.4872C228.377 72.8791 226.856 71.5751 223.813 71.5751C220.843 71.5751 217.981 73.8209 215.228 78.3126C212.548 82.7318 210.737 87.3321 209.795 92.1136V92.8742C209.795 95.3374 210.157 97.873 210.881 100.481C211.678 103.089 212.077 104.9 212.077 105.915C212.077 108.378 208.998 110.805 202.84 113.195C201.898 113.558 201.065 113.739 200.341 113.739C198.529 113.739 197.262 112.797 196.537 110.913C195.885 109.03 195.559 106.096 195.559 102.111C195.559 91.8238 195.958 84.398 196.754 79.8339C197.841 73.024 200.304 66.685 204.144 60.8168C205.448 58.7884 206.861 57.7741 208.382 57.7741ZM277.616 100.155C283.267 100.155 288.737 97.9092 294.025 93.4176C295.981 91.7513 297.575 90.23 298.807 88.8535C300.038 87.4046 300.98 86.6801 301.632 86.6801C302.646 86.6801 303.153 87.6943 303.153 89.7228C303.153 91.7513 302.61 94.0334 301.523 96.569C300.437 99.0322 298.626 101.459 296.09 103.85C289.86 109.718 281.311 112.652 270.444 112.652C261.823 112.652 255.955 109.537 252.84 103.306C251.753 101.133 251.21 98.0179 251.21 93.9609C251.21 89.9039 252.006 85.7021 253.6 81.3553C255.194 76.9361 257.295 73.1327 259.903 69.9451C262.584 66.7574 265.663 64.2943 269.14 62.5556C272.617 60.7444 276.312 59.8388 280.224 59.8388C284.209 59.8388 287.251 60.8168 289.352 62.7729C291.526 64.7289 292.612 67.2645 292.612 70.3797C292.612 73.4949 291.816 76.0667 290.222 78.0952C288.7 80.0513 286.708 81.7175 284.245 83.094C281.782 84.398 279.029 85.5934 275.986 86.6801C273.016 87.6943 270.082 88.8535 267.184 90.1575V92.8742C267.256 95.4823 268.343 97.3297 270.444 98.4164C272.545 99.5031 274.936 100.083 277.616 100.155ZM275.769 69.5104C272.002 69.5104 269.394 73.8934 267.945 82.6593C269.466 81.6451 270.879 80.7395 272.183 79.9426C273.559 79.1457 274.755 78.385 275.769 77.6606C277.942 76.0667 279.065 74.2556 279.138 72.2271C279.138 70.4159 278.015 69.5104 275.769 69.5104ZM302.498 106.132C301.701 104.176 301.122 101.93 300.759 99.3944C300.397 96.7863 300.216 93.164 300.216 88.5275C300.216 83.8909 301.085 77.6243 302.824 69.7277H297.934C297.065 69.7277 296.63 69.3655 296.63 68.641C296.63 66.9023 296.775 65.4896 297.065 64.4029C297.427 63.2438 298.224 61.9398 299.455 60.4908H302.063C303.078 60.4908 304.164 60.4546 305.323 60.3822C308.801 49.2255 312.351 43.6471 315.973 43.6471C318.871 43.7196 320.899 45.5669 322.058 49.1893C322.348 50.2035 322.674 51.2902 323.036 52.4493L318.581 60.2735C323.652 60.4184 326.84 60.4908 328.144 60.4908C329.52 60.4908 330.245 60.6357 330.317 60.9255C330.462 61.1429 330.535 61.5051 330.535 62.0122C330.535 63.3162 330.209 64.9463 329.557 66.9023C328.977 68.8584 328.289 69.8002 327.492 69.7277L316.625 69.1844C315.104 78.0228 314.343 85.3398 314.343 91.1355C314.343 96.9312 315.176 99.8291 316.842 99.8291C318.219 99.8291 320.718 98.7061 324.34 96.4603C327.963 94.142 330.571 91.9324 332.165 89.8315C333.758 87.7306 335.063 86.6801 336.077 86.6801C337.091 86.6801 337.598 87.9117 337.598 90.3748C337.598 92.838 336.729 95.3736 334.99 97.9817C333.251 100.517 331.042 102.872 328.361 105.045C325.753 107.146 322.819 108.885 319.559 110.261C316.371 111.638 313.582 112.326 311.192 112.326C308.801 112.326 306.953 111.783 305.649 110.696C304.418 109.537 303.367 108.015 302.498 106.132Z" fill="#4F46E5"/>
</svg>
